<!-- <svg width="200" height="200" viewBox="0 0 200 200" fill="none" xmlns="http://www.w3.org/2000/svg">
<path d="M49.3936 119.294C54.4653 117.53 60.4925 116.648 67.1077 116.648C65.5641 91.9515 74.6784 76.957 84.3072 61.9625C88.8644 54.4653 92.3925 48.7321 94.8916 41.6759C98.9342 29.3275 119.147 28.8864 107.019 43.4399C101.433 50.4961 99.4487 54.0243 100.919 69.4598C101.433 73.4289 101.948 76.957 102.977 80.9261C104.52 87.9824 107.019 95.4796 110.033 102.536C112.091 107.387 114.59 112.238 117.089 117.089C123.631 114.884 130.246 113.561 136.788 114.443C152.958 116.207 165.086 136.494 159.059 152.811C152.958 168.688 132.745 177.949 114.59 172.657C95.8471 167.365 83.2047 146.196 92.319 134.289C96.3616 128.997 102.903 123.705 110.548 120.176C104.006 108.71 98.4197 95.4796 95.8471 82.6902C94.3036 76.075 93.348 69.0187 93.348 62.4035C92.8335 63.2856 91.8045 64.6086 91.29 65.4906L90.7754 66.3727C83.2047 78.7211 76.075 91.0695 75.1194 108.71V117.53C82.6902 118.412 90.2609 120.176 95.8471 123.263C92.319 125.91 89.7464 128.556 87.2473 131.643C86.7328 132.525 86.2183 132.966 85.7038 133.848C79.6031 144.432 85.7038 157.663 93.789 166.042C92.76 166.924 91.731 167.365 90.7754 168.247C74.6049 177.949 52.3337 175.303 40.7203 162.073C29.1069 147.96 33.6641 124.146 49.3936 119.294ZM107.019 155.458C109.519 153.693 112.091 152.37 114.59 150.606C109.004 145.755 108.49 142.227 106.505 135.612C104.006 136.053 101.433 136.053 98.9342 136.494C95.4061 143.109 100.919 151.488 107.019 155.458ZM43.2929 142.227C46.3065 142.668 49.8346 143.109 52.9217 143.55C52.9217 136.935 55.4208 133.848 59.4634 128.115C57.4054 126.351 55.4208 125.028 53.3627 123.705C45.351 126.351 42.2639 135.612 43.2929 142.227Z" fill="#D81E06"/>
<path d="M105.087 53.1422C104.572 61.5215 106.116 76.075 116.185 86.2183C131.841 101.213 179.397 95.0386 179.397 95.0386C179.397 95.0386 169.254 62.8445 151.614 51.8192C133.899 40.7938 123.315 42.9989 115.23 42.9989C119.787 58.8754 136.472 73.4289 150.658 82.6902C150.658 82.6902 122.36 69.4598 110.232 57.5524C107.586 56.2293 106.042 54.9063 105.087 53.1422Z" fill="#00AE26"/>
</svg> -->
<!-- <svg xmlns="http://www.w3.org/2000/svg" width="24" height="24" viewBox="0 0 24 24">
    <path fill="#ff307f"
        d="M19.68 6.88a4.4 4.4 0 0 0-3.31-.32a4.37 4.37 0 0 0-8.73 0a4.48 4.48 0 0 0-3.31.29a4.37 4.37 0 0 0 .61 8a4.4 4.4 0 0 0-.8 2.5a5 5 0 0 0 .07.75a4.34 4.34 0 0 0 4.29 3.63a4.68 4.68 0 0 0 .64 0A4.42 4.42 0 0 0 12 20a4.42 4.42 0 0 0 2.86 1.69a4.68 4.68 0 0 0 .64 0a4.36 4.36 0 0 0 3.56-6.87a4.36 4.36 0 0 0 .62-8Zm-9.34-1.94a2.4 2.4 0 0 1 3.32 0a2.43 2.43 0 0 1 .52 2.66l-.26.59l-.66.58A4.07 4.07 0 0 0 12 8.55a4 4 0 0 0-1.61.34L9.83 7.6a2.39 2.39 0 0 1 .51-2.66m-6.1 6.84A2.37 2.37 0 0 1 7.94 9l.49.43l.35.8A3.92 3.92 0 0 0 8 12.55A2.85 2.85 0 0 0 8 13h-.55l-.84.08a2.37 2.37 0 0 1-2.37-1.3m6.6 6.08a2.38 2.38 0 0 1-4.66-.08a3.07 3.07 0 0 1 0-.42a2.33 2.33 0 0 1 1.17-2l.51-.36l.91-.1a4 4 0 0 0 2.38 1.57ZM12 14.55a2 2 0 1 1 2-2a2 2 0 0 1-2 2m5.82 3.22a2.36 2.36 0 0 1-2.68 1.94a2.39 2.39 0 0 1-2-1.85l-.14-.6l.21-.92a4 4 0 0 0 2.2-1.76l.5.3H16l.66.39a2.38 2.38 0 0 1 1.16 2.5m1.94-6a2.39 2.39 0 0 1-2.13 1.33h-.24l-.64-.1l-.75-.41a4 4 0 0 0-1-2.64l.43-.37l.63-.58a2.37 2.37 0 0 1 3.7 2.82Z" />
</svg> -->
<svg xmlns="http://www.w3.org/2000/svg" width="1024" height="1024" viewBox="0 0 512 512"><defs><linearGradient id="meteoconsPollenFlowerFill0" x1="111" x2="123" y1="2.6" y2="23.4" gradientUnits="userSpaceOnUse"><stop offset="0" stop-color="#fbbf24"/><stop offset=".5" stop-color="#fbbf24"/><stop offset="1" stop-color="#f59e0b"/></linearGradient><linearGradient id="meteoconsPollenFlowerFill1" x1="149" x2="165" y1="39.1" y2="66.9" href="#meteoconsPollenFlowerFill0"/><linearGradient id="meteoconsPollenFlowerFill2" x1="69" x2="85" y1="39.1" y2="66.9" href="#meteoconsPollenFlowerFill0"/><linearGradient id="meteoconsPollenFlowerFill3" x1="7" x2="19" y1="50.6" y2="71.4" href="#meteoconsPollenFlowerFill0"/><linearGradient id="meteoconsPollenFlowerFill4" x1="215" x2="227" y1="50.6" y2="71.4" href="#meteoconsPollenFlowerFill0"/><linearGradient id="meteoconsPollenFlowerFill5" x1="177" x2="185" y1="14.1" y2="27.9" href="#meteoconsPollenFlowerFill0"/><linearGradient id="meteoconsPollenFlowerFill6" x1="49" x2="57" y1="14.1" y2="27.9" href="#meteoconsPollenFlowerFill0"/><linearGradient id="meteoconsPollenFlowerFill7" x1="205.3" x2="306.6" y1="184.3" y2="359.7" gradientUnits="userSpaceOnUse"><stop offset="0" stop-color="#f783ac"/><stop offset=".5" stop-color="#f783ac"/><stop offset="1" stop-color="#e64980"/></linearGradient><linearGradient id="meteoconsPollenFlowerFill8" x1="205.7" x2="306.3" y1="272" y2="272" href="#meteoconsPollenFlowerFill0"/><symbol id="meteoconsPollenFlowerFill9" viewBox="0 0 234 74"><circle cx="117" cy="13" r="12" fill="url(#meteoconsPollenFlowerFill0)" stroke="#f8af18" stroke-miterlimit="10" stroke-width="2"><animateTransform attributeName="transform" begin="-0.33s" calcMode="spline" dur="3s" keySplines=".42, 0, .58, 1; .42, 0, .58, 1" repeatCount="indefinite" type="translate" values="0 -30; 0 30; 0 -30"/></circle><circle cx="157" cy="53" r="16" fill="url(#meteoconsPollenFlowerFill1)" stroke="#f8af18" stroke-miterlimit="10" stroke-width="2"><animateTransform attributeName="transform" begin="-1.17s" calcMode="spline" dur="3s" keySplines=".42, 0, .58, 1; .42, 0, .58, 1" repeatCount="indefinite" type="translate" values="0 -30; 0 30; 0 -30"/></circle><circle cx="77" cy="53" r="16" fill="url(#meteoconsPollenFlowerFill2)" stroke="#f8af18" stroke-miterlimit="10" stroke-width="2"><animateTransform attributeName="transform" begin="-1s" calcMode="spline" dur="3s" keySplines=".42, 0, .58, 1; .42, 0, .58, 1" repeatCount="indefinite" type="translate" values="0 -30; 0 30; 0 -30"/></circle><circle cx="13" cy="61" r="12" fill="url(#meteoconsPollenFlowerFill3)" stroke="#f8af18" stroke-miterlimit="10" stroke-width="2"><animateTransform attributeName="transform" begin="-.67s" calcMode="spline" dur="3s" keySplines=".42, 0, .58, 1; .42, 0, .58, 1" repeatCount="indefinite" type="translate" values="0 -30; 0 30; 0 -30"/></circle><circle cx="221" cy="61" r="12" fill="url(#meteoconsPollenFlowerFill4)" stroke="#f8af18" stroke-miterlimit="10" stroke-width="2"><animateTransform attributeName="transform" begin="-1.5s" calcMode="spline" dur="3s" keySplines=".42, 0, .58, 1; .42, 0, .58, 1" repeatCount="indefinite" type="translate" values="0 -30; 0 30; 0 -30"/></circle><circle cx="181" cy="21" r="8" fill="url(#meteoconsPollenFlowerFill5)" stroke="#f8af18" stroke-miterlimit="10" stroke-width="2"><animateTransform attributeName="transform" begin="-1.33s" calcMode="spline" dur="3s" keySplines=".42, 0, .58, 1; .42, 0, .58, 1" repeatCount="indefinite" type="translate" values="0 -30; 0 30; 0 -30"/></circle><circle cx="53" cy="21" r="8" fill="url(#meteoconsPollenFlowerFill6)" stroke="#f8af18" stroke-miterlimit="10" stroke-width="2"><animateTransform attributeName="transform" begin="-.83s" calcMode="spline" dur="3s" keySplines=".42, 0, .58, 1; .42, 0, .58, 1" repeatCount="indefinite" type="translate" values="0 -30; 0 30; 0 -30"/></circle></symbol></defs><path fill="url(#meteoconsPollenFlowerFill7)" stroke="#f06595" stroke-miterlimit="10" stroke-width="2" d="M327.5 258.6a74.1 74.1 0 0 0-17.7-5.8a74.3 74.3 0 0 0 10-15.8c13.5-28.5 7.1-59.8-14.2-69.8s-49.6 4.8-63 33.3a74.3 74.3 0 0 0-5.8 17.7a74.5 74.5 0 0 0-15.7-10c-28.5-13.5-59.8-7.1-70 14.2s5 49.6 33.4 63a74.6 74.6 0 0 0 17.7 5.8a74.3 74.3 0 0 0-10 15.8c-13.4 28.5-7 59.7 14.3 69.8s49.5-4.8 63-33.3a74.2 74.2 0 0 0 5.7-17.7a75 75 0 0 0 15.8 10c28.5 13.4 59.8 7 69.9-14.3s-4.9-49.5-33.4-63Zm-72.3 15l-1.8-.7l1-1.7l.7-1.8l1.7 1l1.8.7l-1 1.7l-.7 1.8l-1.7-1Z"/><path fill="url(#meteoconsPollenFlowerFill8)" stroke="#f8af18" stroke-miterlimit="10" stroke-width="2" d="M306.3 276.2c-.2-5.9-32-7.2-32-7.2s29-4 26.6-10.6c-.3-.8-1.4-1.3-3.1-1.4c1.2-1 1.8-2.1 1.5-3c-2.3-6.5-27.3 8.7-27.3 8.7s23.8-21.2 20.1-25.8s-22.4 16.9-22.4 16.9s15.5-26.4 8.9-29.6s-17.3 25.6-17.3 25.6s4.8-28.2-1.1-28s-7.2 32-7.2 32s-4-29-10.6-26.6c-.9.3-1.3 1.4-1.4 3c-1.1-1.2-2.2-1.8-3-1.5c-6.5 2.3 8.7 27.3 8.7 27.3s-21.2-23.8-25.8-20.1s16.9 22.4 16.9 22.4s-26.4-15.5-29.6-8.8s25.6 17.2 25.6 17.2s-28.2-4.7-28 1.2s31.9 7.1 31.9 7.1s-29 4-26.6 10.6c.3.9 1.4 1.3 3.1 1.4c-1.2 1.1-1.8 2.1-1.5 3c2.3 6.5 27.3-8.7 27.3-8.7s-23.8 21.2-20.2 25.8s22.4-17 22.4-17s-15.5 26.5-8.8 29.7s17.3-25.6 17.3-25.6s-4.8 28.2 1.1 28s7.2-32 7.2-32s4 29 10.6 26.6c.8-.3 1.3-1.4 1.4-3c1 1.2 2.1 1.8 3 1.4c6.5-2.3-8.7-27.2-8.7-27.2s21.1 23.8 25.8 20.1s-17-22.4-17-22.4s26.5 15.5 29.6 8.8s-25.5-17.2-25.5-17.2s28.2 4.8 28-1.1Z"/><use width="234" height="74" href="#meteoconsPollenFlowerFill9" transform="translate(139 131)"/></svg>